<mxfile host="app.diagrams.net" modified="2023-06-08T07:13:02.167Z" agent="Mozilla/5.0 (Windows NT 10.0; Win64; x64) AppleWebKit/537.36 (KHTML, like Gecko) Chrome/114.0.0.0 Safari/537.36 Edg/114.0.1823.37" etag="Li7-0YjdDwNZAE03P_GQ" version="21.3.4" type="github">
  <diagram id="kgpKYQtTHZ0yAKxKKP6v" name="Page-1">
    <mxGraphModel dx="1402" dy="622" grid="1" gridSize="10" guides="1" tooltips="1" connect="1" arrows="1" fold="1" page="1" pageScale="1" pageWidth="850" pageHeight="1100" math="0" shadow="0">
      <root>
        <mxCell id="0" />
        <mxCell id="1" parent="0" />
        <mxCell id="aAMT6ewFGgkj2NSnzW5G-6" value="Instance" style="verticalAlign=top;align=left;spacingTop=8;spacingLeft=2;spacingRight=12;shape=cube;size=10;direction=south;fontStyle=4;html=1;whiteSpace=wrap;fillColor=#dae8fc;strokeColor=#6c8ebf;" vertex="1" parent="1">
          <mxGeometry x="240" y="100" width="640" height="460" as="geometry" />
        </mxCell>
        <mxCell id="aAMT6ewFGgkj2NSnzW5G-1" value="&lt;br&gt;Postgresql&lt;br&gt;DB" style="strokeWidth=2;html=1;shape=mxgraph.flowchart.database;whiteSpace=wrap;" vertex="1" parent="1">
          <mxGeometry x="990" y="215" width="70" height="50" as="geometry" />
        </mxCell>
        <mxCell id="aAMT6ewFGgkj2NSnzW5G-3" value="Socket Connetion" style="html=1;whiteSpace=wrap;fillColor=#eeeeee;strokeColor=#36393d;" vertex="1" parent="1">
          <mxGeometry x="330" y="285" width="120" height="40" as="geometry" />
        </mxCell>
        <mxCell id="aAMT6ewFGgkj2NSnzW5G-17" style="edgeStyle=orthogonalEdgeStyle;rounded=0;orthogonalLoop=1;jettySize=auto;html=1;exitX=0;exitY=0.5;exitDx=0;exitDy=0;entryX=1;entryY=0.5;entryDx=0;entryDy=0;" edge="1" parent="1" source="aAMT6ewFGgkj2NSnzW5G-5" target="aAMT6ewFGgkj2NSnzW5G-16">
          <mxGeometry relative="1" as="geometry" />
        </mxCell>
        <mxCell id="aAMT6ewFGgkj2NSnzW5G-44" value="Connect to Client &lt;br style=&quot;font-size: 13px;&quot;&gt;via SIP Trunk" style="edgeLabel;html=1;align=center;verticalAlign=middle;resizable=0;points=[];fontSize=13;" vertex="1" connectable="0" parent="aAMT6ewFGgkj2NSnzW5G-17">
          <mxGeometry x="0.2271" y="1" relative="1" as="geometry">
            <mxPoint x="12" y="-1" as="offset" />
          </mxGeometry>
        </mxCell>
        <mxCell id="aAMT6ewFGgkj2NSnzW5G-26" value="Django Server" style="verticalAlign=top;align=left;spacingTop=8;spacingLeft=2;spacingRight=12;shape=cube;size=10;direction=south;fontStyle=4;html=1;whiteSpace=wrap;fillColor=#fff2cc;strokeColor=#d6b656;" vertex="1" parent="1">
          <mxGeometry x="610" y="120" width="240" height="250" as="geometry" />
        </mxCell>
        <mxCell id="aAMT6ewFGgkj2NSnzW5G-4" value="HTTP(s)" style="html=1;whiteSpace=wrap;" vertex="1" parent="1">
          <mxGeometry x="670" y="180" width="120" height="40" as="geometry" />
        </mxCell>
        <mxCell id="aAMT6ewFGgkj2NSnzW5G-5" value="Asterisk Server" style="html=1;whiteSpace=wrap;fillColor=#ffff88;strokeColor=#36393d;" vertex="1" parent="1">
          <mxGeometry x="330" y="180" width="120" height="40" as="geometry" />
        </mxCell>
        <mxCell id="aAMT6ewFGgkj2NSnzW5G-14" value="Client" style="shape=umlActor;verticalLabelPosition=bottom;verticalAlign=top;html=1;outlineConnect=0;" vertex="1" parent="1">
          <mxGeometry x="70" y="530" width="30" height="60" as="geometry" />
        </mxCell>
        <mxCell id="aAMT6ewFGgkj2NSnzW5G-15" value="" style="endArrow=classic;html=1;rounded=0;exitX=0;exitY=0.5;exitDx=0;exitDy=0;entryX=1;entryY=0.5;entryDx=0;entryDy=0;" edge="1" parent="1" source="aAMT6ewFGgkj2NSnzW5G-4" target="aAMT6ewFGgkj2NSnzW5G-5">
          <mxGeometry width="50" height="50" relative="1" as="geometry">
            <mxPoint x="450" y="250" as="sourcePoint" />
            <mxPoint x="500" y="200" as="targetPoint" />
          </mxGeometry>
        </mxCell>
        <mxCell id="aAMT6ewFGgkj2NSnzW5G-39" value="Initiate Calls&lt;br&gt;via AMI" style="edgeLabel;html=1;align=center;verticalAlign=middle;resizable=0;points=[];fontSize=13;" vertex="1" connectable="0" parent="aAMT6ewFGgkj2NSnzW5G-15">
          <mxGeometry x="0.169" y="1" relative="1" as="geometry">
            <mxPoint as="offset" />
          </mxGeometry>
        </mxCell>
        <mxCell id="aAMT6ewFGgkj2NSnzW5G-16" value="Sip Trunk" style="rounded=0;whiteSpace=wrap;html=1;" vertex="1" parent="1">
          <mxGeometry x="40" y="185" width="90" height="30" as="geometry" />
        </mxCell>
        <mxCell id="aAMT6ewFGgkj2NSnzW5G-20" value="" style="endArrow=classic;startArrow=classic;html=1;rounded=0;exitX=0.5;exitY=0;exitDx=0;exitDy=0;exitPerimeter=0;entryX=0.5;entryY=1;entryDx=0;entryDy=0;" edge="1" parent="1" source="aAMT6ewFGgkj2NSnzW5G-14" target="aAMT6ewFGgkj2NSnzW5G-16">
          <mxGeometry width="50" height="50" relative="1" as="geometry">
            <mxPoint x="310" y="250" as="sourcePoint" />
            <mxPoint x="360" y="200" as="targetPoint" />
          </mxGeometry>
        </mxCell>
        <mxCell id="aAMT6ewFGgkj2NSnzW5G-45" value="Connection to Client" style="edgeLabel;html=1;align=center;verticalAlign=middle;resizable=0;points=[];fontSize=13;" vertex="1" connectable="0" parent="aAMT6ewFGgkj2NSnzW5G-20">
          <mxGeometry x="0.4566" y="-2" relative="1" as="geometry">
            <mxPoint as="offset" />
          </mxGeometry>
        </mxCell>
        <mxCell id="aAMT6ewFGgkj2NSnzW5G-13" style="edgeStyle=orthogonalEdgeStyle;rounded=0;orthogonalLoop=1;jettySize=auto;html=1;exitX=0;exitY=0;exitDx=120;exitDy=0;exitPerimeter=0;entryX=0;entryY=0.5;entryDx=0;entryDy=0;entryPerimeter=0;" edge="1" parent="1" source="aAMT6ewFGgkj2NSnzW5G-26" target="aAMT6ewFGgkj2NSnzW5G-1">
          <mxGeometry relative="1" as="geometry">
            <mxPoint x="950" y="310" as="targetPoint" />
            <Array as="points">
              <mxPoint x="930" y="240" />
              <mxPoint x="930" y="240" />
            </Array>
          </mxGeometry>
        </mxCell>
        <mxCell id="aAMT6ewFGgkj2NSnzW5G-46" value="DB Connect" style="edgeLabel;html=1;align=center;verticalAlign=middle;resizable=0;points=[];fontSize=13;" vertex="1" connectable="0" parent="aAMT6ewFGgkj2NSnzW5G-13">
          <mxGeometry x="-0.2992" y="-3" relative="1" as="geometry">
            <mxPoint x="31" y="-3" as="offset" />
          </mxGeometry>
        </mxCell>
        <mxCell id="aAMT6ewFGgkj2NSnzW5G-27" value="Bot at&lt;br&gt;Web Socket" style="html=1;whiteSpace=wrap;" vertex="1" parent="1">
          <mxGeometry x="670" y="285" width="120" height="40" as="geometry" />
        </mxCell>
        <mxCell id="aAMT6ewFGgkj2NSnzW5G-29" value="GPU&lt;br&gt;(Nvidia Series)" style="html=1;whiteSpace=wrap;fillColor=#cdeb8b;strokeColor=#36393d;" vertex="1" parent="1">
          <mxGeometry x="675" y="470" width="110" height="50" as="geometry" />
        </mxCell>
        <mxCell id="aAMT6ewFGgkj2NSnzW5G-30" value="" style="endArrow=classic;startArrow=classic;html=1;rounded=0;exitX=0.5;exitY=0;exitDx=0;exitDy=0;entryX=0.5;entryY=1;entryDx=0;entryDy=0;fontSize=15;" edge="1" parent="1" source="aAMT6ewFGgkj2NSnzW5G-29" target="aAMT6ewFGgkj2NSnzW5G-27">
          <mxGeometry width="50" height="50" relative="1" as="geometry">
            <mxPoint x="450" y="340" as="sourcePoint" />
            <mxPoint x="500" y="290" as="targetPoint" />
          </mxGeometry>
        </mxCell>
        <mxCell id="aAMT6ewFGgkj2NSnzW5G-41" value="Convert live &lt;br&gt;Speech to Text" style="edgeLabel;html=1;align=center;verticalAlign=middle;resizable=0;points=[];fontSize=13;" vertex="1" connectable="0" parent="aAMT6ewFGgkj2NSnzW5G-30">
          <mxGeometry x="-0.2049" y="-1" relative="1" as="geometry">
            <mxPoint as="offset" />
          </mxGeometry>
        </mxCell>
        <mxCell id="aAMT6ewFGgkj2NSnzW5G-31" value="" style="endArrow=classic;startArrow=classic;html=1;rounded=0;entryX=0;entryY=0.5;entryDx=0;entryDy=0;exitX=1;exitY=0.5;exitDx=0;exitDy=0;" edge="1" parent="1" source="aAMT6ewFGgkj2NSnzW5G-3" target="aAMT6ewFGgkj2NSnzW5G-27">
          <mxGeometry width="50" height="50" relative="1" as="geometry">
            <mxPoint x="630" y="440" as="sourcePoint" />
            <mxPoint x="630" y="340" as="targetPoint" />
          </mxGeometry>
        </mxCell>
        <mxCell id="aAMT6ewFGgkj2NSnzW5G-40" value="Communication&lt;br style=&quot;font-size: 13px;&quot;&gt;with Bot" style="edgeLabel;html=1;align=center;verticalAlign=middle;resizable=0;points=[];fontSize=13;" vertex="1" connectable="0" parent="aAMT6ewFGgkj2NSnzW5G-31">
          <mxGeometry x="-0.3615" y="-5" relative="1" as="geometry">
            <mxPoint x="24" y="-5" as="offset" />
          </mxGeometry>
        </mxCell>
        <mxCell id="aAMT6ewFGgkj2NSnzW5G-32" value="" style="endArrow=classic;startArrow=classic;html=1;rounded=0;exitX=0.5;exitY=0;exitDx=0;exitDy=0;entryX=0.5;entryY=1;entryDx=0;entryDy=0;" edge="1" parent="1" source="aAMT6ewFGgkj2NSnzW5G-3" target="aAMT6ewFGgkj2NSnzW5G-5">
          <mxGeometry width="50" height="50" relative="1" as="geometry">
            <mxPoint x="640" y="450" as="sourcePoint" />
            <mxPoint x="640" y="350" as="targetPoint" />
          </mxGeometry>
        </mxCell>
        <mxCell id="aAMT6ewFGgkj2NSnzW5G-42" value="Communicate with&lt;br style=&quot;font-size: 13px;&quot;&gt;Asterisk Server" style="edgeLabel;html=1;align=center;verticalAlign=middle;resizable=0;points=[];fontSize=13;" vertex="1" connectable="0" parent="aAMT6ewFGgkj2NSnzW5G-32">
          <mxGeometry x="0.4027" y="-1" relative="1" as="geometry">
            <mxPoint x="-1" y="11" as="offset" />
          </mxGeometry>
        </mxCell>
        <mxCell id="aAMT6ewFGgkj2NSnzW5G-37" style="edgeStyle=orthogonalEdgeStyle;rounded=0;orthogonalLoop=1;jettySize=auto;html=1;exitX=0.5;exitY=1;exitDx=0;exitDy=0;exitPerimeter=0;" edge="1" parent="1" source="aAMT6ewFGgkj2NSnzW5G-1" target="aAMT6ewFGgkj2NSnzW5G-1">
          <mxGeometry relative="1" as="geometry" />
        </mxCell>
      </root>
    </mxGraphModel>
  </diagram>
</mxfile>
